<?xml version="1.0" encoding="UTF-8" standalone="no"?>
<!-- Created with Inkscape (http://www.inkscape.org/) -->

<svg
   xmlns:dc="http://purl.org/dc/elements/1.1/"
   xmlns:cc="http://creativecommons.org/ns#"
   xmlns:rdf="http://www.w3.org/1999/02/22-rdf-syntax-ns#"
   xmlns:svg="http://www.w3.org/2000/svg"
   xmlns="http://www.w3.org/2000/svg"
   xmlns:sodipodi="http://sodipodi.sourceforge.net/DTD/sodipodi-0.dtd"
   xmlns:inkscape="http://www.inkscape.org/namespaces/inkscape"
   width="44.871819mm"
   height="28.573484mm"
   viewBox="0 0 44.871819 28.573484"
   version="1.1"
   id="svg2183"
   inkscape:version="0.92.2 (5c3e80d, 2017-08-06)"
   sodipodi:docname="drawing.svg">
  <defs
     id="defs2177" />
  <sodipodi:namedview
     id="base"
     pagecolor="#ffffff"
     bordercolor="#666666"
     borderopacity="1.0"
     inkscape:pageopacity="0.0"
     inkscape:pageshadow="2"
     inkscape:zoom="0.35"
     inkscape:cx="101.94"
     inkscape:cy="-100.28858"
     inkscape:document-units="mm"
     inkscape:current-layer="layer1"
     showgrid="false"
     fit-margin-top="0"
     fit-margin-left="0"
     fit-margin-right="0"
     fit-margin-bottom="0"
     inkscape:window-width="1366"
     inkscape:window-height="705"
     inkscape:window-x="-8"
     inkscape:window-y="-8"
     inkscape:window-maximized="1" />
  <metadata
     id="metadata2180">
    <rdf:RDF>
      <cc:Work
         rdf:about="">
        <dc:format>image/svg+xml</dc:format>
        <dc:type
           rdf:resource="http://purl.org/dc/dcmitype/StillImage" />
        <dc:title></dc:title>
      </cc:Work>
    </rdf:RDF>
  </metadata>
  <g
     inkscape:label="Layer 1"
     inkscape:groupmode="layer"
     id="layer1"
     transform="translate(-78.861709,-93.725163)">
    <g
       transform="translate(47.282759,22.060007)"
       id="g2146">
      <g
         transform="matrix(0.34482714,0,0,-0.33336313,64.264779,72.934517)"
         id="g22">
        <path
           inkscape:connector-curvature="0"
           id="path24"
           style="fill:#ffffff;fill-opacity:1;fill-rule:nonzero;stroke:none"
           d="m 0,0 -4.073,-4.61 -0.588,-10.046 -7.651,4.089 -6.967,-1.302 -3.235,-6.399 -0.909,-10.323 2.339,-9.272 6.221,-6.572 6.278,-0.883 5.984,2.649 3.493,9.212 3.051,-2.738 3.559,1.863 2.06,6.769 v 15.596 L 4.755,-0.883 Z" />
      </g>
      <g
         transform="matrix(0.34482714,0,0,-0.33336313,62.792712,73.876202)"
         id="g26">
        <path
           inkscape:connector-curvature="0"
           id="path28"
           style="fill:#e60012;fill-opacity:1;fill-rule:nonzero;stroke:none"
           d="m 0,0 -9.532,1.942 -11.754,-0.971 -15.302,-7.661 -12.85,-11.378 -10.888,-14.518 -5.1,-7.651 h -8.632 l -7.749,-2.158 -4.414,-5.493 -1.276,-6.474 1.918,-7.259 5.145,-8.926 7.259,-4.806 8.828,-0.883 19.127,4.316 17.755,6.18 11.672,0.294 17.951,7.651 25.7,15.106 9.22,9.318 -1.079,5.984 -8.141,0.785 -14.322,-0.098 -1.765,-4.807 -3.559,-1.864 -3.943,1.276 -2.209,-5.69 -4.61,-5.493 h -6.344 l -7.921,6.131 -2.901,14.114 4.706,12.812 4.514,2.06 9.613,-2.525 2.067,3.898 z" />
      </g>
      <g
         transform="matrix(0.34482714,0,0,-0.33336313,59.650273,82.42143)"
         id="g38">
        <path
           inkscape:connector-curvature="0"
           id="path40"
           style="fill:#000000;fill-opacity:1;fill-rule:nonzero;stroke:none"
           d="m 0,0 c 0.273,-2.595 -0.7,-4.793 -2.529,-4.985 -1.829,-0.192 -3.24,1.789 -3.509,4.35 C -6.31,1.948 -5.226,4.17 -3.51,4.35 -1.794,4.531 -0.27,2.573 0,0" />
      </g>
      <g
         transform="matrix(0.34482714,0,0,-0.33336313,64.416439,76.44593)"
         id="g42">
        <path
           inkscape:connector-curvature="0"
           id="path44"
           style="fill:#e60012;fill-opacity:1;fill-rule:nonzero;stroke:none"
           d="m 0,0 c 1.916,0.073 4.45,-2.172 5.326,-7.269 0.665,-3.869 -0.28,-7.558 -2.989,-8.103 -1.567,-0.315 -3.25,0.927 -3.25,0.927 l -2.77,10.747 c 0,0 1.155,3.602 3.683,3.698" />
      </g>
      <g
         transform="matrix(0.34482714,0,0,-0.33336313,65.523403,78.949853)"
         id="g46">
        <path
           inkscape:connector-curvature="0"
           id="path48"
           style="fill:#000000;fill-opacity:1;fill-rule:nonzero;stroke:none"
           d="m 0,0 c 0.442,-2.508 -0.151,-4.385 -1.458,-4.616 -1.365,-0.24 -2.509,1.346 -2.948,3.839 -0.415,2.353 0.126,4.381 1.457,4.616 C -1.617,4.073 -0.408,2.316 0,0" />
      </g>
      <g
         transform="matrix(0.34482714,0,0,-0.33336313,64.852266,77.771115)"
         id="g50">
        <path
           inkscape:connector-curvature="0"
           id="path52"
           style="fill:#ffffff;fill-opacity:1;fill-rule:nonzero;stroke:none"
           d="m 0,0 c 0.105,-0.694 -0.241,-1.309 -0.773,-1.374 -0.532,-0.066 -1.05,0.444 -1.155,1.137 -0.105,0.694 0.241,1.309 0.773,1.375 C -0.622,1.203 -0.105,0.694 0,0" />
      </g>
      <g
         transform="matrix(0.34482714,0,0,-0.33336313,60.640203,82.391694)"
         id="g54">
        <path
           inkscape:connector-curvature="0"
           id="path56"
           style="fill:#e60012;fill-opacity:1;fill-rule:nonzero;stroke:none"
           d="m 0,0 c 0.445,-4.712 -1.876,-8.673 -5.48,-8.673 -3.712,0 -4.693,3.835 -5.215,8.489 -0.245,2.188 0.024,8.428 4.225,8.428 C -3.394,8.244 -0.503,5.335 0,0" />
      </g>
      <g
         transform="matrix(0.34482714,0,0,-0.33336313,59.650273,82.42143)"
         id="g58">
        <path
           inkscape:connector-curvature="0"
           id="path60"
           style="fill:#000000;fill-opacity:1;fill-rule:nonzero;stroke:none"
           d="m 0,0 c 0.273,-2.595 -0.7,-4.793 -2.529,-4.985 -1.829,-0.192 -3.24,1.789 -3.509,4.35 C -6.31,1.948 -5.226,4.17 -3.51,4.35 -1.794,4.531 -0.27,2.573 0,0" />
      </g>
      <g
         transform="matrix(0.34482714,0,0,-0.33336313,58.877998,81.130215)"
         id="g62">
        <path
           inkscape:connector-curvature="0"
           id="path64"
           style="fill:#ffffff;fill-opacity:1;fill-rule:nonzero;stroke:none"
           d="m 0,0 c 0.027,-0.766 -0.53,-1.387 -1.244,-1.387 -0.714,0 -1.314,0.621 -1.341,1.387 -0.027,0.766 0.53,1.387 1.244,1.387 C -0.627,1.387 -0.027,0.766 0,0" />
      </g>
      <g
         transform="matrix(0.34482714,0,0,-0.33336313,74.564564,85.019229)"
         id="g66">
        <path
           inkscape:connector-curvature="0"
           id="path68"
           style="fill:#000000;fill-opacity:1;fill-rule:nonzero;stroke:none"
           d="m 0,0 c -1.256,-2.242 -7.239,-7.282 -14.771,-12.181 -7.208,-4.688 -28.468,-16.806 -40.659,-17.923 -3.301,-0.302 -5.75,-0.124 -6.493,-0.108 -0.318,0.007 -0.73,-0.054 -0.959,-0.162 -0.23,-0.108 -6.853,-3.119 -10.564,-4.41 -8.962,-3.117 -22.033,-5.641 -28.603,-5.922 -2.795,-0.135 -5.078,0.5 -6.82,1.729 -4.334,3.057 -8.106,8.221 -9.826,13.287 -2.629,7.74 1.043,12.282 3.181,13.893 3.208,2.417 8.095,3.451 12.94,3.082 0.301,-0.023 0.495,-0.33 0.397,-0.617 -0.282,-0.825 -0.531,-1.644 -0.743,-2.452 -0.216,-0.824 -0.02,-1.398 0.372,-1.519 0.289,-0.09 0.582,0.057 1.208,0.831 2.558,3.156 6.642,10.829 15.695,21.877 9.743,11.889 21.561,19.7 27.891,21.944 9.179,3.255 16.635,2.107 21.294,0.437 0.214,-0.076 0.335,-0.297 0.292,-0.52 -0.341,-1.777 -0.54,-3.821 -0.561,-6.137 -2.65,2.429 -5.239,3.514 -6.872,3.836 -8.869,1.751 -13.433,-8.41 -13.433,-17.233 0,-3.891 0.733,-7.692 2.034,-11.354 1.503,-4.228 3.53,-7.334 5.769,-9.41 0.175,-0.162 0.203,-0.427 0.06,-0.619 -1.153,-1.534 -4.32,-5.719 -5.32,-7.11 -1.166,-1.62 -1.841,-2.813 -2.008,-3.155 -0.166,-0.342 -0.238,-0.644 -0.121,-0.722 0.117,-0.077 0.373,0.091 0.554,0.267 0.18,0.176 1.499,1.504 1.994,2.035 0.443,0.475 5.447,5.636 7.128,7.205 0.145,0.136 0.36,0.161 0.536,0.068 1.179,-0.624 2.379,-0.998 3.561,-1.133 4.692,-0.535 9.928,1.189 12.723,8.793 0.299,0.813 0.566,1.712 0.794,2.666 1.054,-0.7 2.22,-1.046 3.507,-1.046 2.511,0 4.777,2.515 6.27,6.524 0.07,0.188 0.249,0.311 0.45,0.301 5.861,-0.277 15.488,-0.12 16.618,-0.18 C -0.787,4.772 -0.11,4.411 0.389,3.716 1.051,2.793 0.986,1.76 0,0 m -37.863,-7.652 c -4.922,-0.918 -10.334,4.89 -11.824,13.892 -1.3,8.372 1.589,15.748 6.555,16.304 5.431,0.609 10.284,-6.456 11.404,-13.534 1.404,-8.863 -1.461,-15.79 -6.135,-16.662 m 9.418,40.897 c 2.815,0.333 5.373,-7.787 6.173,-14.707 1.014,-8.778 0.042,-15.934 -2.124,-16.269 -0.983,-0.115 -2.641,1.311 -4.116,5.649 -0.084,1.606 -0.316,3.143 -0.728,4.494 -0.313,1.025 -0.654,1.986 -1.015,2.896 -0.078,0.478 -0.154,0.967 -0.226,1.478 -1.17,8.547 -0.119,16.162 2.036,16.459 M -4.867,9.397 c -1.438,0.066 -8.611,0.081 -12.658,0.23 -0.275,0.01 -0.475,0.254 -0.438,0.527 0.465,3.368 0.413,7.225 -0.094,11.266 -1.481,11.794 -6.675,18.982 -11.514,18.626 -1.937,-0.143 -3.682,-1.427 -4.966,-3.851 -0.11,-0.208 -0.352,-0.305 -0.573,-0.225 -2.601,0.946 -6.704,2.035 -11.84,2.035 -12.977,0 -25.41,-8.078 -36.88,-19.772 -6.19,-6.312 -12.235,-14.252 -16.022,-21.994 -0.088,-0.18 -0.277,-0.28 -0.475,-0.253 -4.79,0.654 -12.082,0.141 -17.681,-3.684 -5.334,-3.644 -8.497,-11.762 -5.478,-19.565 4.392,-11.348 11.342,-16.355 15.562,-17.751 7.257,-2.401 26.156,2.439 37.37,6.455 3.998,1.432 8.138,3.316 8.523,3.478 0.384,0.162 0.715,0.176 1.06,0.176 0.344,0 3.809,-0.107 8.512,0.644 9.23,1.474 27.252,9.759 40.442,18.533 C 0.38,-7.481 5.47,-2.803 5.47,2.989 5.47,8.306 1.027,9.128 -4.867,9.397" />
      </g>
    </g>
  </g>
</svg>
