<svg xmlns="http://www.w3.org/2000/svg" id="logo_full" viewBox="0 0 270 75"><path d="M76.957 27.154c3.757-.664 5.135-3.37 5.135-6.85v-2.649c0-5.242-3.257-8.442-9.22-8.442h-13.47v36.76h13.634c5.964 0 9.285-3.142 9.285-8.441v-3.535c-.007-3.422-1.443-6.014-5.364-6.843zm-9.592-11.763h4.421c2.043 0 2.814 1.164 2.814 2.986v3.2c0 2.142-1.107 3.199-3.15 3.199h-4.085V15.39zm7.4 21.477c0 1.82-.772 2.928-2.815 2.928h-4.585V30.24h4.285c2.043 0 3.15 1.107 3.15 3.264l-.036 3.364zM99.79 25.883v-6.57c-3.806-.886-6.627.714-7.856 5.413l-.436-5.25h-5.563v26.498h6.735V29.362c0-2.486 1.821-4.364 7.142-3.479m9.663-6.406h-6.735v26.497h6.735V19.477zm25.162-.664a15.55 15.55 0 00-.164-2.372h-4.75c0 1.822-.557 3.093-3.206 3.093-.55 0-1.707-.55-3.807-.55-5.243 0-9.285 3.7-9.285 8.392v.164c0 3.093 1.486 5.964 3.971 6.957-2.535.328-4.471 2.485-4.471 4.414 0 1.764 1.157 3.42 3.571 4.2-2.65.77-4.028 2.65-4.028 4.635v.492c0 3.864 4.528 6.628 10.599 6.628 6.685 0 10.492-3.642 10.492-8.277v-.443c0-4.2-2.928-7.014-9.828-7.014-4.364 0-5.521-.607-5.521-1.764 0-.886.829-1.821 2.264-1.821.729.13 1.467.203 2.207.221 5.714 0 9.328-3.314 9.328-8.063v-.5a6.858 6.858 0 00-2.593-5.3 4.001 4.001 0 002.1.5c1.629 0 3.121-1.271 3.121-3.592zm-16.12 27.776c0-1.715 1.486-2.764 4.579-2.764 3.421 0 4.528.992 4.528 2.706v.493c0 1.714-1.322 2.986-4.528 2.986-3.093 0-4.579-1.215-4.579-2.929v-.492zm7.285-18.277a3.092 3.092 0 11-6.185 0v-1.429a3.093 3.093 0 016.185 0v1.429zm30.64 17.662V26.383c0-4.421-2.264-7.35-6.128-7.35-2.764 0-5.242 1.658-6.513 4.643V9.213h-6.735v36.76h6.72V28.477c0-1.543 1.272-4.357 3.314-4.357 1.543 0 2.65 1.214 2.65 3.035v18.82h6.692zm31.897-26.94a6.918 6.918 0 00-6.571 3.92l-.328-3.477h-5v36.368l6.743-4.657-.115-7.528c1.764 1.928 3.307 2.814 6.014 2.814 3.571 0 6.428-3.478 6.428-7.728V27.32c.057-4.828-2.443-8.285-7.171-8.285zm.714 18.57c0 2.428-1.099 3.642-2.921 3.642-1.821 0-3.064-1.4-3.064-3.493V27.597c0-2.264 1.429-3.478 3.036-3.478 1.821 0 2.921 1.214 2.921 3.643l.028 9.841zm19.463-18.62c-5.714 0-9.499 3.642-9.499 9.492v8.57c0 5.907 3.814 9.385 9.499 9.385 5.685 0 9.385-3.478 9.385-9.384v-8.571c0-5.85-3.807-9.492-9.385-9.492zm2.928 19.284c0 1.878-1.164 3.15-2.928 3.15-1.878 0-2.978-1.272-2.978-3.15V27.204c0-1.87 1.1-3.142 2.978-3.142 1.764 0 2.928 1.271 2.928 3.142v11.064zm16.927-18.791h-6.735v26.497h6.735V19.477zm23.427 26.497v-19.59c0-4.422-2.215-7.35-6.514-7.35-2.928 0-5.471 1.878-6.735 5.578l-.393-5.135h-5.714v26.497h6.735V28.476c0-1.543 1.215-4.357 3.307-4.357 1.55 0 2.657 1.214 2.657 3.036v18.82h6.657zm17.205-21.248v-5.25h-4.2v-6.513l-6.463 4.528v1.978h-3.757v5.25h3.478v12.77c0 3.921.329 6.292 1.429 8.5h7.07c-1.378-2.429-1.771-5.079-1.771-8.5V24.726h4.214zm-95.477-.05v-5.25h-4.192v-6.513l-6.478 4.535v1.979h-3.757v5.25h3.478v12.748c0 3.921.329 6.292 1.429 8.5h7.063c-1.378-2.43-1.764-5.079-1.764-8.5V24.676h4.221zm51.503-9.049a3.514 3.514 0 100-7.027 3.514 3.514 0 000 7.027zm-119.01 0a3.515 3.515 0 10-.015-7.029 3.515 3.515 0 00.015 7.03z" fill="#E53E51"/><path d="M27.469 30.625l9.17 9.15.758 14.755-9.928-10.963V30.625z" fill="#EE7623"/><path d="M17.534 54.53l9.935-10.963V30.625l-9.178 9.15-.757 14.755z" fill="#F3C300"/><path d="M23.976 27.148l-9.176 9.14-14.8.759 10.999-9.9h12.977z" fill="#003B4A"/><path d="M10.999 27.147L0 17.241l14.799.757 9.177 9.15H11zm16.22-3.242l-9.17-9.15L17.29 0l9.928 10.97v12.935z" fill="#E53E51"/><path d="M27.219 10.97L37.154 0l-.757 14.756-9.178 9.149V10.97z" fill="#003B4A"/><path d="M30.711 27.39l9.178-9.149 14.799-.757-11 9.906H30.712z" fill="#E53E51"/><path d="M43.689 27.39l10.999 9.9-14.799-.75-9.17-9.15h12.97zm15.598 40.54c0-3.679 1.886-7.05 5.992-7.05 3.222 0 4.922 1.978 5.45 4.807l-2.186.542c-.32-2.257-1.285-3.57-3.228-3.57-2.257 0-3.485 2-3.485 5.263 0 3.264 1.25 5.278 3.485 5.278 2 0 2.907-1.428 3.264-3.57l2.143.585C70.136 72.835 68.579 75 65.215 75c-4.085-.022-5.928-3.393-5.928-7.07zm13.477 0c0-3.572 1.943-7.05 6.186-7.05 4.242 0 6.163 3.485 6.163 7.05 0 3.563-1.92 7.049-6.163 7.049s-6.186-3.486-6.186-7.05zm9.807 0c0-3.265-1.136-5.265-3.621-5.265-2.486 0-3.643 2.143-3.643 5.264 0 3.121 1.15 5.257 3.643 5.257 2.492 0 3.62-1.979 3.62-5.257zm5.299-6.75H91l3.32 9.649h.072l3.207-9.65h3.071v13.5h-2.143v-10.67h-.114l-3.507 10.67h-1.492l-3.572-10.67h-.078v10.67H87.9l-.029-13.5zm16.363 0h3.128l3.321 9.649h.079l3.2-9.65h3.078v13.5h-2.143v-10.67h-.114l-3.507 10.67h-1.485l-3.572-10.67h-.071v10.67h-1.871l-.043-13.5zm16.048 9.2v-9.2h2.393v8.9c0 1.956.757 3.049 2.857 3.049s2.907-1.093 2.907-3.05v-8.9h2.071v9.164c0 2.857-1.736 4.614-5.142 4.614-3.407 0-5.086-1.692-5.086-4.578zm13.578-9.2h2.335l5.864 9.692h.057V61.18h2.093v13.499h-2.057l-6.15-10.05h-.071v10.05h-2.071v-13.5zm14.098 0h2.379v13.499h-2.379v-13.5zm8.9 1.771h-4.107V61.18h10.649v1.771h-4.107V74.68h-2.435V62.95zm12.141 11.728v-5.764l-4.185-7.728h2.543l2.999 5.714h.115l3.014-5.714h2.142l-4.285 7.728v5.77l-2.343-.006zm13.428-6.749c0-3.679 1.885-7.05 5.999-7.05 3.221 0 4.921 1.978 5.442 4.807l-2.185.542c-.322-2.257-1.279-3.57-3.221-3.57-2.264 0-3.493 2-3.493 5.263 0 3.264 1.229 5.257 3.493 5.257 2 0 2.899-1.429 3.264-3.571l2.142.585c-.585 2.621-2.142 4.786-5.506 4.786-4.086 0-5.935-3.372-5.935-7.05zm13.498 0c0-3.572 1.943-7.05 6.185-7.05 4.243 0 6.164 3.485 6.164 7.05 0 3.563-1.921 7.049-6.164 7.049-4.242 0-6.185-3.486-6.185-7.05zm9.799 0c0-3.265-1.128-5.265-3.614-5.265-2.485 0-3.642 2.143-3.642 5.264 0 3.121 1.15 5.257 3.642 5.257 2.493 0 3.6-1.979 3.6-5.257h.014zm5.2-6.75h2.4v11.634h6.706v1.865h-9.106v-13.5zm11.606 0h2.4v11.634h6.706v1.865h-9.106v-13.5zm11.299 0h8.52v1.736h-6.149v4.106h4.792v1.757h-4.792v4.164h6.792v1.736h-9.163v-13.5zm11.049 6.75c0-3.679 2.071-7.05 6.185-7.05 3.221 0 4.671 1.485 5.335 3.9l-2.057.55c-.4-1.829-1.321-2.665-3.228-2.665-2.243 0-3.693 2-3.693 5.264 0 3.264 1.429 5.257 3.572 5.257 1.999 0 3.378-1.222 3.378-3.093v-.657h-2.736v-1.7h4.9v6.943h-1.329l-.25-2.207h-.071c-.55 1.585-1.921 2.507-3.964 2.507-4.121 0-6.042-3.372-6.042-7.05zm14.913-6.75h8.52v1.736h-6.149v4.106h4.792v1.757h-4.792v4.164h6.792v1.736h-9.163v-13.5z" fill="#003B4A"/></svg>