<svg stroke="currentColor" fill="currentColor" stroke-width="0" role="img" height="1em" width="1em" viewBox="0 0 29 29" xmlns="http://www.w3.org/2000/svg"><path d="m11.09 11.12a4.61 4.61 0 0 1 .62 2.73v.3a4 4 0 0 1 -.62 2.43 2.34 2.34 0 0 1 -1.94.75 2 2 0 0 1 -1.79-.89 4.67 4.67 0 0 1 -.59-2.57 4.72 4.72 0 0 1 .61-2.63 2 2 0 0 1 1.75-.92 2.35 2.35 0 0 1 1.96.8z"/><path d="m14.5 0a14.5 14.5 0 1 0 14.5 14.5 14.5 14.5 0 0 0 -14.5-14.5zm-.72 18.89h-1.69l-.38-1.33h-.1a3.46 3.46 0 0 1 -3 1.51 3.54 3.54 0 0 1 -3-1.38 6.16 6.16 0 0 1 -1.06-3.86 6.17 6.17 0 0 1 1.08-3.83 3.54 3.54 0 0 1 3-1.39 3.52 3.52 0 0 1 3.03 1.39h.11a12 12 0 0 1 -.16-1.72v-3.67h2.17zm9.59-.23a3.54 3.54 0 0 1 -3 1.4 3.53 3.53 0 0 1 -3-1.39h-.13c.08.86.13 1.38.13 1.56v4.16h-2.12v-14.66h1.75l.3 1.36h.11a3.36 3.36 0 0 1 3-1.54 3.5 3.5 0 0 1 3 1.37 6.19 6.19 0 0 1 1.06 3.86 6.19 6.19 0 0 1 -1.1 3.88zm-3.5-7.35a2.23 2.23 0 0 0 -1.87.75 3.92 3.92 0 0 0 -.59 2.4v.32a4.79 4.79 0 0 0 .59 2.69 2.22 2.22 0 0 0 1.92.83 2 2 0 0 0 1.73-.92 4.75 4.75 0 0 0 .6-2.61 4.61 4.61 0 0 0 -.6-2.59 2 2 0 0 0 -1.78-.87z"/></svg>